<svg xmlns="http://www.w3.org/2000/svg" viewBox="0 0 480 641" width="480" height="641">
  <style>
    .chart-bg { fill: #0d1117; }
    .chart-title { fill: #e6edf3; }
    .chart-text { fill: #e6edf3; }
    .chart-muted { fill: #8b949e; }
  </style>
  <rect class="chart-bg" width="100%" height="100%" fill="#0d1117"/>
  <text x="16" y="28" fill="#e6edf3" font-size="14" font-weight="600" font-family="ui-monospace,monospace" class="chart-title">Daily Service Status</text>
  <text x="16" y="42" fill="#8b949e" font-size="10" font-family="ui-monospace,monospace">March 20–31 — based on AIWatch polling (5-min intervals)</text>
  <text x="154" y="60" fill="#8b949e" font-size="9" font-family="ui-monospace,monospace" text-anchor="middle">20</text>
  <text x="192" y="60" fill="#8b949e" font-size="9" font-family="ui-monospace,monospace" text-anchor="middle">22</text>
  <text x="249" y="60" fill="#8b949e" font-size="9" font-family="ui-monospace,monospace" text-anchor="middle">25</text>
  <text x="306" y="60" fill="#8b949e" font-size="9" font-family="ui-monospace,monospace" text-anchor="middle">28</text>
  <text x="363" y="60" fill="#8b949e" font-size="9" font-family="ui-monospace,monospace" text-anchor="middle">31</text>
  <text x="138" y="80" fill="#e6edf3" font-size="11" font-weight="600" font-family="ui-monospace,monospace" text-anchor="end">Together AI</text>
  <rect x="146" y="68" width="16" height="16" rx="2" fill="#3fb950" opacity="0.85"/>
  <rect x="165" y="68" width="16" height="16" rx="2" fill="#3fb950" opacity="0.85"/>
  <rect x="184" y="68" width="16" height="16" rx="2" fill="#eab308" opacity="0.85"/>
  <rect x="203" y="68" width="16" height="16" rx="2" fill="#eab308" opacity="0.85"/>
  <rect x="222" y="68" width="16" height="16" rx="2" fill="#eab308" opacity="0.85"/>
  <rect x="241" y="68" width="16" height="16" rx="2" fill="#ef4444" opacity="0.85"/>
  <rect x="260" y="68" width="16" height="16" rx="2" fill="#ef4444" opacity="0.85"/>
  <rect x="279" y="68" width="16" height="16" rx="2" fill="#eab308" opacity="0.85"/>
  <rect x="298" y="68" width="16" height="16" rx="2" fill="#3fb950" opacity="0.85"/>
  <rect x="317" y="68" width="16" height="16" rx="2" fill="#eab308" opacity="0.85"/>
  <rect x="336" y="68" width="16" height="16" rx="2" fill="#eab308" opacity="0.85"/>
  <rect x="355" y="68" width="16" height="16" rx="2" fill="#eab308" opacity="0.85"/>
  <text x="138" y="99" fill="#e6edf3" font-size="11" font-weight="600" font-family="ui-monospace,monospace" text-anchor="end">claude.ai</text>
  <rect x="146" y="87" width="16" height="16" rx="2" fill="#3fb950" opacity="0.85"/>
  <rect x="165" y="87" width="16" height="16" rx="2" fill="#ef4444" opacity="0.85"/>
  <rect x="184" y="87" width="16" height="16" rx="2" fill="#ef4444" opacity="0.85"/>
  <rect x="203" y="87" width="16" height="16" rx="2" fill="#eab308" opacity="0.85"/>
  <rect x="222" y="87" width="16" height="16" rx="2" fill="#3fb950" opacity="0.85"/>
  <rect x="241" y="87" width="16" height="16" rx="2" fill="#ef4444" opacity="0.85"/>
  <rect x="260" y="87" width="16" height="16" rx="2" fill="#ef4444" opacity="0.85"/>
  <rect x="279" y="87" width="16" height="16" rx="2" fill="#ef4444" opacity="0.85"/>
  <rect x="298" y="87" width="16" height="16" rx="2" fill="#3fb950" opacity="0.85"/>
  <rect x="317" y="87" width="16" height="16" rx="2" fill="#ef4444" opacity="0.85"/>
  <rect x="336" y="87" width="16" height="16" rx="2" fill="#3fb950" opacity="0.85"/>
  <rect x="355" y="87" width="16" height="16" rx="2" fill="#eab308" opacity="0.85"/>
  <text x="138" y="118" fill="#e6edf3" font-size="11" font-weight="600" font-family="ui-monospace,monospace" text-anchor="end">Claude API</text>
  <rect x="146" y="106" width="16" height="16" rx="2" fill="#3fb950" opacity="0.85"/>
  <rect x="165" y="106" width="16" height="16" rx="2" fill="#ef4444" opacity="0.85"/>
  <rect x="184" y="106" width="16" height="16" rx="2" fill="#eab308" opacity="0.85"/>
  <rect x="203" y="106" width="16" height="16" rx="2" fill="#3fb950" opacity="0.85"/>
  <rect x="222" y="106" width="16" height="16" rx="2" fill="#3fb950" opacity="0.85"/>
  <rect x="241" y="106" width="16" height="16" rx="2" fill="#ef4444" opacity="0.85"/>
  <rect x="260" y="106" width="16" height="16" rx="2" fill="#ef4444" opacity="0.85"/>
  <rect x="279" y="106" width="16" height="16" rx="2" fill="#ef4444" opacity="0.85"/>
  <rect x="298" y="106" width="16" height="16" rx="2" fill="#eab308" opacity="0.85"/>
  <rect x="317" y="106" width="16" height="16" rx="2" fill="#3fb950" opacity="0.85"/>
  <rect x="336" y="106" width="16" height="16" rx="2" fill="#3fb950" opacity="0.85"/>
  <rect x="355" y="106" width="16" height="16" rx="2" fill="#eab308" opacity="0.85"/>
  <text x="138" y="137" fill="#e6edf3" font-size="11" font-weight="600" font-family="ui-monospace,monospace" text-anchor="end">Claude Code</text>
  <rect x="146" y="125" width="16" height="16" rx="2" fill="#3fb950" opacity="0.85"/>
  <rect x="165" y="125" width="16" height="16" rx="2" fill="#ef4444" opacity="0.85"/>
  <rect x="184" y="125" width="16" height="16" rx="2" fill="#eab308" opacity="0.85"/>
  <rect x="203" y="125" width="16" height="16" rx="2" fill="#3fb950" opacity="0.85"/>
  <rect x="222" y="125" width="16" height="16" rx="2" fill="#3fb950" opacity="0.85"/>
  <rect x="241" y="125" width="16" height="16" rx="2" fill="#ef4444" opacity="0.85"/>
  <rect x="260" y="125" width="16" height="16" rx="2" fill="#ef4444" opacity="0.85"/>
  <rect x="279" y="125" width="16" height="16" rx="2" fill="#ef4444" opacity="0.85"/>
  <rect x="298" y="125" width="16" height="16" rx="2" fill="#eab308" opacity="0.85"/>
  <rect x="317" y="125" width="16" height="16" rx="2" fill="#3fb950" opacity="0.85"/>
  <rect x="336" y="125" width="16" height="16" rx="2" fill="#3fb950" opacity="0.85"/>
  <rect x="355" y="125" width="16" height="16" rx="2" fill="#eab308" opacity="0.85"/>
  <text x="138" y="156" fill="#e6edf3" font-size="11" font-weight="600" font-family="ui-monospace,monospace" text-anchor="end">GitHub Copilot</text>
  <rect x="146" y="144" width="16" height="16" rx="2" fill="#3fb950" opacity="0.85"/>
  <rect x="165" y="144" width="16" height="16" rx="2" fill="#3fb950" opacity="0.85"/>
  <rect x="184" y="144" width="16" height="16" rx="2" fill="#3fb950" opacity="0.85"/>
  <rect x="203" y="144" width="16" height="16" rx="2" fill="#3fb950" opacity="0.85"/>
  <rect x="222" y="144" width="16" height="16" rx="2" fill="#3fb950" opacity="0.85"/>
  <rect x="241" y="144" width="16" height="16" rx="2" fill="#3fb950" opacity="0.85"/>
  <rect x="260" y="144" width="16" height="16" rx="2" fill="#3fb950" opacity="0.85"/>
  <rect x="279" y="144" width="16" height="16" rx="2" fill="#3fb950" opacity="0.85"/>
  <rect x="298" y="144" width="16" height="16" rx="2" fill="#3fb950" opacity="0.85"/>
  <rect x="317" y="144" width="16" height="16" rx="2" fill="#3fb950" opacity="0.85"/>
  <rect x="336" y="144" width="16" height="16" rx="2" fill="#3fb950" opacity="0.85"/>
  <rect x="355" y="144" width="16" height="16" rx="2" fill="#3fb950" opacity="0.85"/>
  <text x="138" y="175" fill="#e6edf3" font-size="11" font-weight="600" font-family="ui-monospace,monospace" text-anchor="end">Mistral API</text>
  <rect x="146" y="163" width="16" height="16" rx="2" fill="#3fb950" opacity="0.85"/>
  <rect x="165" y="163" width="16" height="16" rx="2" fill="#3fb950" opacity="0.85"/>
  <rect x="184" y="163" width="16" height="16" rx="2" fill="#3fb950" opacity="0.85"/>
  <rect x="203" y="163" width="16" height="16" rx="2" fill="#eab308" opacity="0.85"/>
  <rect x="222" y="163" width="16" height="16" rx="2" fill="#3fb950" opacity="0.85"/>
  <rect x="241" y="163" width="16" height="16" rx="2" fill="#3fb950" opacity="0.85"/>
  <rect x="260" y="163" width="16" height="16" rx="2" fill="#3fb950" opacity="0.85"/>
  <rect x="279" y="163" width="16" height="16" rx="2" fill="#3fb950" opacity="0.85"/>
  <rect x="298" y="163" width="16" height="16" rx="2" fill="#3fb950" opacity="0.85"/>
  <rect x="317" y="163" width="16" height="16" rx="2" fill="#3fb950" opacity="0.85"/>
  <rect x="336" y="163" width="16" height="16" rx="2" fill="#3fb950" opacity="0.85"/>
  <rect x="355" y="163" width="16" height="16" rx="2" fill="#3fb950" opacity="0.85"/>
  <text x="138" y="194" fill="#e6edf3" font-size="11" font-weight="600" font-family="ui-monospace,monospace" text-anchor="end">Cursor</text>
  <rect x="146" y="182" width="16" height="16" rx="2" fill="#eab308" opacity="0.85"/>
  <rect x="165" y="182" width="16" height="16" rx="2" fill="#3fb950" opacity="0.85"/>
  <rect x="184" y="182" width="16" height="16" rx="2" fill="#3fb950" opacity="0.85"/>
  <rect x="203" y="182" width="16" height="16" rx="2" fill="#3fb950" opacity="0.85"/>
  <rect x="222" y="182" width="16" height="16" rx="2" fill="#3fb950" opacity="0.85"/>
  <rect x="241" y="182" width="16" height="16" rx="2" fill="#3fb950" opacity="0.85"/>
  <rect x="260" y="182" width="16" height="16" rx="2" fill="#3fb950" opacity="0.85"/>
  <rect x="279" y="182" width="16" height="16" rx="2" fill="#3fb950" opacity="0.85"/>
  <rect x="298" y="182" width="16" height="16" rx="2" fill="#3fb950" opacity="0.85"/>
  <rect x="317" y="182" width="16" height="16" rx="2" fill="#3fb950" opacity="0.85"/>
  <rect x="336" y="182" width="16" height="16" rx="2" fill="#3fb950" opacity="0.85"/>
  <rect x="355" y="182" width="16" height="16" rx="2" fill="#3fb950" opacity="0.85"/>
  <text x="138" y="213" fill="#e6edf3" font-size="11" font-weight="600" font-family="ui-monospace,monospace" text-anchor="end">ChatGPT</text>
  <rect x="146" y="201" width="16" height="16" rx="2" fill="#ef4444" opacity="0.85"/>
  <rect x="165" y="201" width="16" height="16" rx="2" fill="#3fb950" opacity="0.85"/>
  <rect x="184" y="201" width="16" height="16" rx="2" fill="#3fb950" opacity="0.85"/>
  <rect x="203" y="201" width="16" height="16" rx="2" fill="#3fb950" opacity="0.85"/>
  <rect x="222" y="201" width="16" height="16" rx="2" fill="#ef4444" opacity="0.85"/>
  <rect x="241" y="201" width="16" height="16" rx="2" fill="#ef4444" opacity="0.85"/>
  <rect x="260" y="201" width="16" height="16" rx="2" fill="#ef4444" opacity="0.85"/>
  <rect x="279" y="201" width="16" height="16" rx="2" fill="#3fb950" opacity="0.85"/>
  <rect x="298" y="201" width="16" height="16" rx="2" fill="#3fb950" opacity="0.85"/>
  <rect x="317" y="201" width="16" height="16" rx="2" fill="#eab308" opacity="0.85"/>
  <rect x="336" y="201" width="16" height="16" rx="2" fill="#3fb950" opacity="0.85"/>
  <rect x="355" y="201" width="16" height="16" rx="2" fill="#eab308" opacity="0.85"/>
  <text x="138" y="232" fill="#e6edf3" font-size="11" font-weight="600" font-family="ui-monospace,monospace" text-anchor="end">ElevenLabs</text>
  <rect x="146" y="220" width="16" height="16" rx="2" fill="#3fb950" opacity="0.85"/>
  <rect x="165" y="220" width="16" height="16" rx="2" fill="#3fb950" opacity="0.85"/>
  <rect x="184" y="220" width="16" height="16" rx="2" fill="#3fb950" opacity="0.85"/>
  <rect x="203" y="220" width="16" height="16" rx="2" fill="#3fb950" opacity="0.85"/>
  <rect x="222" y="220" width="16" height="16" rx="2" fill="#3fb950" opacity="0.85"/>
  <rect x="241" y="220" width="16" height="16" rx="2" fill="#3fb950" opacity="0.85"/>
  <rect x="260" y="220" width="16" height="16" rx="2" fill="#3fb950" opacity="0.85"/>
  <rect x="279" y="220" width="16" height="16" rx="2" fill="#3fb950" opacity="0.85"/>
  <rect x="298" y="220" width="16" height="16" rx="2" fill="#3fb950" opacity="0.85"/>
  <rect x="317" y="220" width="16" height="16" rx="2" fill="#3fb950" opacity="0.85"/>
  <rect x="336" y="220" width="16" height="16" rx="2" fill="#ef4444" opacity="0.85"/>
  <rect x="355" y="220" width="16" height="16" rx="2" fill="#ef4444" opacity="0.85"/>
  <text x="138" y="251" fill="#e6edf3" font-size="11" font-weight="600" font-family="ui-monospace,monospace" text-anchor="end">OpenAI API</text>
  <rect x="146" y="239" width="16" height="16" rx="2" fill="#ef4444" opacity="0.85"/>
  <rect x="165" y="239" width="16" height="16" rx="2" fill="#3fb950" opacity="0.85"/>
  <rect x="184" y="239" width="16" height="16" rx="2" fill="#3fb950" opacity="0.85"/>
  <rect x="203" y="239" width="16" height="16" rx="2" fill="#3fb950" opacity="0.85"/>
  <rect x="222" y="239" width="16" height="16" rx="2" fill="#eab308" opacity="0.85"/>
  <rect x="241" y="239" width="16" height="16" rx="2" fill="#eab308" opacity="0.85"/>
  <rect x="260" y="239" width="16" height="16" rx="2" fill="#ef4444" opacity="0.85"/>
  <rect x="279" y="239" width="16" height="16" rx="2" fill="#3fb950" opacity="0.85"/>
  <rect x="298" y="239" width="16" height="16" rx="2" fill="#3fb950" opacity="0.85"/>
  <rect x="317" y="239" width="16" height="16" rx="2" fill="#eab308" opacity="0.85"/>
  <rect x="336" y="239" width="16" height="16" rx="2" fill="#3fb950" opacity="0.85"/>
  <rect x="355" y="239" width="16" height="16" rx="2" fill="#eab308" opacity="0.85"/>
  <text x="138" y="270" fill="#e6edf3" font-size="11" font-weight="600" font-family="ui-monospace,monospace" text-anchor="end">DeepSeek API</text>
  <rect x="146" y="258" width="16" height="16" rx="2" fill="#eab308" opacity="0.85"/>
  <rect x="165" y="258" width="16" height="16" rx="2" fill="#3fb950" opacity="0.85"/>
  <rect x="184" y="258" width="16" height="16" rx="2" fill="#3fb950" opacity="0.85"/>
  <rect x="203" y="258" width="16" height="16" rx="2" fill="#3fb950" opacity="0.85"/>
  <rect x="222" y="258" width="16" height="16" rx="2" fill="#3fb950" opacity="0.85"/>
  <rect x="241" y="258" width="16" height="16" rx="2" fill="#3fb950" opacity="0.85"/>
  <rect x="260" y="258" width="16" height="16" rx="2" fill="#3fb950" opacity="0.85"/>
  <rect x="279" y="258" width="16" height="16" rx="2" fill="#3fb950" opacity="0.85"/>
  <rect x="298" y="258" width="16" height="16" rx="2" fill="#3fb950" opacity="0.85"/>
  <rect x="317" y="258" width="16" height="16" rx="2" fill="#3fb950" opacity="0.85"/>
  <rect x="336" y="258" width="16" height="16" rx="2" fill="#3fb950" opacity="0.85"/>
  <rect x="355" y="258" width="16" height="16" rx="2" fill="#3fb950" opacity="0.85"/>
  <text x="138" y="289" fill="#e6edf3" font-size="11" font-weight="600" font-family="ui-monospace,monospace" text-anchor="end">Replicate</text>
  <rect x="146" y="277" width="16" height="16" rx="2" fill="#3fb950" opacity="0.85"/>
  <rect x="165" y="277" width="16" height="16" rx="2" fill="#3fb950" opacity="0.85"/>
  <rect x="184" y="277" width="16" height="16" rx="2" fill="#3fb950" opacity="0.85"/>
  <rect x="203" y="277" width="16" height="16" rx="2" fill="#ef4444" opacity="0.85"/>
  <rect x="222" y="277" width="16" height="16" rx="2" fill="#ef4444" opacity="0.85"/>
  <rect x="241" y="277" width="16" height="16" rx="2" fill="#3fb950" opacity="0.85"/>
  <rect x="260" y="277" width="16" height="16" rx="2" fill="#3fb950" opacity="0.85"/>
  <rect x="279" y="277" width="16" height="16" rx="2" fill="#3fb950" opacity="0.85"/>
  <rect x="298" y="277" width="16" height="16" rx="2" fill="#3fb950" opacity="0.85"/>
  <rect x="317" y="277" width="16" height="16" rx="2" fill="#3fb950" opacity="0.85"/>
  <rect x="336" y="277" width="16" height="16" rx="2" fill="#3fb950" opacity="0.85"/>
  <rect x="355" y="277" width="16" height="16" rx="2" fill="#3fb950" opacity="0.85"/>
  <text x="138" y="308" fill="#e6edf3" font-size="11" font-weight="600" font-family="ui-monospace,monospace" text-anchor="end">Gemini API</text>
  <rect x="146" y="296" width="16" height="16" rx="2" fill="#3fb950" opacity="0.85"/>
  <rect x="165" y="296" width="16" height="16" rx="2" fill="#3fb950" opacity="0.85"/>
  <rect x="184" y="296" width="16" height="16" rx="2" fill="#3fb950" opacity="0.85"/>
  <rect x="203" y="296" width="16" height="16" rx="2" fill="#3fb950" opacity="0.85"/>
  <rect x="222" y="296" width="16" height="16" rx="2" fill="#3fb950" opacity="0.85"/>
  <rect x="241" y="296" width="16" height="16" rx="2" fill="#3fb950" opacity="0.85"/>
  <rect x="260" y="296" width="16" height="16" rx="2" fill="#3fb950" opacity="0.85"/>
  <rect x="279" y="296" width="16" height="16" rx="2" fill="#3fb950" opacity="0.85"/>
  <rect x="298" y="296" width="16" height="16" rx="2" fill="#3fb950" opacity="0.85"/>
  <rect x="317" y="296" width="16" height="16" rx="2" fill="#3fb950" opacity="0.85"/>
  <rect x="336" y="296" width="16" height="16" rx="2" fill="#3fb950" opacity="0.85"/>
  <rect x="355" y="296" width="16" height="16" rx="2" fill="#3fb950" opacity="0.85"/>
  <text x="138" y="327" fill="#e6edf3" font-size="11" font-weight="600" font-family="ui-monospace,monospace" text-anchor="end">Cohere API</text>
  <rect x="146" y="315" width="16" height="16" rx="2" fill="#3fb950" opacity="0.85"/>
  <rect x="165" y="315" width="16" height="16" rx="2" fill="#3fb950" opacity="0.85"/>
  <rect x="184" y="315" width="16" height="16" rx="2" fill="#3fb950" opacity="0.85"/>
  <rect x="203" y="315" width="16" height="16" rx="2" fill="#3fb950" opacity="0.85"/>
  <rect x="222" y="315" width="16" height="16" rx="2" fill="#3fb950" opacity="0.85"/>
  <rect x="241" y="315" width="16" height="16" rx="2" fill="#3fb950" opacity="0.85"/>
  <rect x="260" y="315" width="16" height="16" rx="2" fill="#3fb950" opacity="0.85"/>
  <rect x="279" y="315" width="16" height="16" rx="2" fill="#3fb950" opacity="0.85"/>
  <rect x="298" y="315" width="16" height="16" rx="2" fill="#3fb950" opacity="0.85"/>
  <rect x="317" y="315" width="16" height="16" rx="2" fill="#3fb950" opacity="0.85"/>
  <rect x="336" y="315" width="16" height="16" rx="2" fill="#3fb950" opacity="0.85"/>
  <rect x="355" y="315" width="16" height="16" rx="2" fill="#3fb950" opacity="0.85"/>
  <text x="138" y="346" fill="#e6edf3" font-size="11" font-weight="600" font-family="ui-monospace,monospace" text-anchor="end">Groq Cloud</text>
  <rect x="146" y="334" width="16" height="16" rx="2" fill="#3fb950" opacity="0.85"/>
  <rect x="165" y="334" width="16" height="16" rx="2" fill="#3fb950" opacity="0.85"/>
  <rect x="184" y="334" width="16" height="16" rx="2" fill="#3fb950" opacity="0.85"/>
  <rect x="203" y="334" width="16" height="16" rx="2" fill="#3fb950" opacity="0.85"/>
  <rect x="222" y="334" width="16" height="16" rx="2" fill="#3fb950" opacity="0.85"/>
  <rect x="241" y="334" width="16" height="16" rx="2" fill="#3fb950" opacity="0.85"/>
  <rect x="260" y="334" width="16" height="16" rx="2" fill="#3fb950" opacity="0.85"/>
  <rect x="279" y="334" width="16" height="16" rx="2" fill="#3fb950" opacity="0.85"/>
  <rect x="298" y="334" width="16" height="16" rx="2" fill="#3fb950" opacity="0.85"/>
  <rect x="317" y="334" width="16" height="16" rx="2" fill="#3fb950" opacity="0.85"/>
  <rect x="336" y="334" width="16" height="16" rx="2" fill="#3fb950" opacity="0.85"/>
  <rect x="355" y="334" width="16" height="16" rx="2" fill="#3fb950" opacity="0.85"/>
  <text x="138" y="365" fill="#e6edf3" font-size="11" font-weight="600" font-family="ui-monospace,monospace" text-anchor="end">Perplexity</text>
  <rect x="146" y="353" width="16" height="16" rx="2" fill="#3fb950" opacity="0.85"/>
  <rect x="165" y="353" width="16" height="16" rx="2" fill="#3fb950" opacity="0.85"/>
  <rect x="184" y="353" width="16" height="16" rx="2" fill="#3fb950" opacity="0.85"/>
  <rect x="203" y="353" width="16" height="16" rx="2" fill="#3fb950" opacity="0.85"/>
  <rect x="222" y="353" width="16" height="16" rx="2" fill="#3fb950" opacity="0.85"/>
  <rect x="241" y="353" width="16" height="16" rx="2" fill="#3fb950" opacity="0.85"/>
  <rect x="260" y="353" width="16" height="16" rx="2" fill="#3fb950" opacity="0.85"/>
  <rect x="279" y="353" width="16" height="16" rx="2" fill="#3fb950" opacity="0.85"/>
  <rect x="298" y="353" width="16" height="16" rx="2" fill="#3fb950" opacity="0.85"/>
  <rect x="317" y="353" width="16" height="16" rx="2" fill="#3fb950" opacity="0.85"/>
  <rect x="336" y="353" width="16" height="16" rx="2" fill="#3fb950" opacity="0.85"/>
  <rect x="355" y="353" width="16" height="16" rx="2" fill="#3fb950" opacity="0.85"/>
  <text x="138" y="384" fill="#e6edf3" font-size="11" font-weight="600" font-family="ui-monospace,monospace" text-anchor="end">xAI (Grok)</text>
  <rect x="146" y="372" width="16" height="16" rx="2" fill="#3fb950" opacity="0.85"/>
  <rect x="165" y="372" width="16" height="16" rx="2" fill="#3fb950" opacity="0.85"/>
  <rect x="184" y="372" width="16" height="16" rx="2" fill="#3fb950" opacity="0.85"/>
  <rect x="203" y="372" width="16" height="16" rx="2" fill="#3fb950" opacity="0.85"/>
  <rect x="222" y="372" width="16" height="16" rx="2" fill="#3fb950" opacity="0.85"/>
  <rect x="241" y="372" width="16" height="16" rx="2" fill="#3fb950" opacity="0.85"/>
  <rect x="260" y="372" width="16" height="16" rx="2" fill="#3fb950" opacity="0.85"/>
  <rect x="279" y="372" width="16" height="16" rx="2" fill="#3fb950" opacity="0.85"/>
  <rect x="298" y="372" width="16" height="16" rx="2" fill="#3fb950" opacity="0.85"/>
  <rect x="317" y="372" width="16" height="16" rx="2" fill="#3fb950" opacity="0.85"/>
  <rect x="336" y="372" width="16" height="16" rx="2" fill="#3fb950" opacity="0.85"/>
  <rect x="355" y="372" width="16" height="16" rx="2" fill="#3fb950" opacity="0.85"/>
  <text x="138" y="403" fill="#e6edf3" font-size="11" font-weight="600" font-family="ui-monospace,monospace" text-anchor="end">Hugging Face</text>
  <rect x="146" y="391" width="16" height="16" rx="2" fill="#3fb950" opacity="0.85"/>
  <rect x="165" y="391" width="16" height="16" rx="2" fill="#3fb950" opacity="0.85"/>
  <rect x="184" y="391" width="16" height="16" rx="2" fill="#3fb950" opacity="0.85"/>
  <rect x="203" y="391" width="16" height="16" rx="2" fill="#3fb950" opacity="0.85"/>
  <rect x="222" y="391" width="16" height="16" rx="2" fill="#3fb950" opacity="0.85"/>
  <rect x="241" y="391" width="16" height="16" rx="2" fill="#3fb950" opacity="0.85"/>
  <rect x="260" y="391" width="16" height="16" rx="2" fill="#eab308" opacity="0.85"/>
  <rect x="279" y="391" width="16" height="16" rx="2" fill="#3fb950" opacity="0.85"/>
  <rect x="298" y="391" width="16" height="16" rx="2" fill="#3fb950" opacity="0.85"/>
  <rect x="317" y="391" width="16" height="16" rx="2" fill="#3fb950" opacity="0.85"/>
  <rect x="336" y="391" width="16" height="16" rx="2" fill="#3fb950" opacity="0.85"/>
  <rect x="355" y="391" width="16" height="16" rx="2" fill="#eab308" opacity="0.85"/>
  <text x="138" y="422" fill="#e6edf3" font-size="11" font-weight="600" font-family="ui-monospace,monospace" text-anchor="end">Windsurf</text>
  <rect x="146" y="410" width="16" height="16" rx="2" fill="#eab308" opacity="0.85"/>
  <rect x="165" y="410" width="16" height="16" rx="2" fill="#3fb950" opacity="0.85"/>
  <rect x="184" y="410" width="16" height="16" rx="2" fill="#3fb950" opacity="0.85"/>
  <rect x="203" y="410" width="16" height="16" rx="2" fill="#3fb950" opacity="0.85"/>
  <rect x="222" y="410" width="16" height="16" rx="2" fill="#ef4444" opacity="0.85"/>
  <rect x="241" y="410" width="16" height="16" rx="2" fill="#3fb950" opacity="0.85"/>
  <rect x="260" y="410" width="16" height="16" rx="2" fill="#3fb950" opacity="0.85"/>
  <rect x="279" y="410" width="16" height="16" rx="2" fill="#3fb950" opacity="0.85"/>
  <rect x="298" y="410" width="16" height="16" rx="2" fill="#3fb950" opacity="0.85"/>
  <rect x="317" y="410" width="16" height="16" rx="2" fill="#3fb950" opacity="0.85"/>
  <rect x="336" y="410" width="16" height="16" rx="2" fill="#3fb950" opacity="0.85"/>
  <rect x="355" y="410" width="16" height="16" rx="2" fill="#3fb950" opacity="0.85"/>
  <text x="138" y="441" fill="#e6edf3" font-size="11" font-weight="600" font-family="ui-monospace,monospace" text-anchor="end">OpenRouter</text>
  <rect x="146" y="429" width="16" height="16" rx="2" fill="#21262d" opacity="0.85"/>
  <rect x="165" y="429" width="16" height="16" rx="2" fill="#21262d" opacity="0.85"/>
  <rect x="184" y="429" width="16" height="16" rx="2" fill="#21262d" opacity="0.85"/>
  <rect x="203" y="429" width="16" height="16" rx="2" fill="#3fb950" opacity="0.85"/>
  <rect x="222" y="429" width="16" height="16" rx="2" fill="#3fb950" opacity="0.85"/>
  <rect x="241" y="429" width="16" height="16" rx="2" fill="#3fb950" opacity="0.85"/>
  <rect x="260" y="429" width="16" height="16" rx="2" fill="#3fb950" opacity="0.85"/>
  <rect x="279" y="429" width="16" height="16" rx="2" fill="#3fb950" opacity="0.85"/>
  <rect x="298" y="429" width="16" height="16" rx="2" fill="#3fb950" opacity="0.85"/>
  <rect x="317" y="429" width="16" height="16" rx="2" fill="#3fb950" opacity="0.85"/>
  <rect x="336" y="429" width="16" height="16" rx="2" fill="#3fb950" opacity="0.85"/>
  <rect x="355" y="429" width="16" height="16" rx="2" fill="#3fb950" opacity="0.85"/>
  <text x="138" y="460" fill="#e6edf3" font-size="11" font-weight="600" font-family="ui-monospace,monospace" text-anchor="end">Character.AI</text>
  <rect x="146" y="448" width="16" height="16" rx="2" fill="#21262d" opacity="0.85"/>
  <rect x="165" y="448" width="16" height="16" rx="2" fill="#21262d" opacity="0.85"/>
  <rect x="184" y="448" width="16" height="16" rx="2" fill="#21262d" opacity="0.85"/>
  <rect x="203" y="448" width="16" height="16" rx="2" fill="#21262d" opacity="0.85"/>
  <rect x="222" y="448" width="16" height="16" rx="2" fill="#21262d" opacity="0.85"/>
  <rect x="241" y="448" width="16" height="16" rx="2" fill="#3fb950" opacity="0.85"/>
  <rect x="260" y="448" width="16" height="16" rx="2" fill="#3fb950" opacity="0.85"/>
  <rect x="279" y="448" width="16" height="16" rx="2" fill="#3fb950" opacity="0.85"/>
  <rect x="298" y="448" width="16" height="16" rx="2" fill="#3fb950" opacity="0.85"/>
  <rect x="317" y="448" width="16" height="16" rx="2" fill="#3fb950" opacity="0.85"/>
  <rect x="336" y="448" width="16" height="16" rx="2" fill="#3fb950" opacity="0.85"/>
  <rect x="355" y="448" width="16" height="16" rx="2" fill="#3fb950" opacity="0.85"/>
  <text x="138" y="479" fill="#e6edf3" font-size="11" font-weight="600" font-family="ui-monospace,monospace" text-anchor="end">Amazon Bedrock</text>
  <rect x="146" y="467" width="16" height="16" rx="2" fill="#21262d" opacity="0.85"/>
  <rect x="165" y="467" width="16" height="16" rx="2" fill="#21262d" opacity="0.85"/>
  <rect x="184" y="467" width="16" height="16" rx="2" fill="#21262d" opacity="0.85"/>
  <rect x="203" y="467" width="16" height="16" rx="2" fill="#21262d" opacity="0.85"/>
  <rect x="222" y="467" width="16" height="16" rx="2" fill="#21262d" opacity="0.85"/>
  <rect x="241" y="467" width="16" height="16" rx="2" fill="#3fb950" opacity="0.85"/>
  <rect x="260" y="467" width="16" height="16" rx="2" fill="#3fb950" opacity="0.85"/>
  <rect x="279" y="467" width="16" height="16" rx="2" fill="#3fb950" opacity="0.85"/>
  <rect x="298" y="467" width="16" height="16" rx="2" fill="#3fb950" opacity="0.85"/>
  <rect x="317" y="467" width="16" height="16" rx="2" fill="#3fb950" opacity="0.85"/>
  <rect x="336" y="467" width="16" height="16" rx="2" fill="#3fb950" opacity="0.85"/>
  <rect x="355" y="467" width="16" height="16" rx="2" fill="#3fb950" opacity="0.85"/>
  <text x="138" y="498" fill="#e6edf3" font-size="11" font-weight="600" font-family="ui-monospace,monospace" text-anchor="end">Azure OpenAI</text>
  <rect x="146" y="486" width="16" height="16" rx="2" fill="#21262d" opacity="0.85"/>
  <rect x="165" y="486" width="16" height="16" rx="2" fill="#21262d" opacity="0.85"/>
  <rect x="184" y="486" width="16" height="16" rx="2" fill="#21262d" opacity="0.85"/>
  <rect x="203" y="486" width="16" height="16" rx="2" fill="#21262d" opacity="0.85"/>
  <rect x="222" y="486" width="16" height="16" rx="2" fill="#21262d" opacity="0.85"/>
  <rect x="241" y="486" width="16" height="16" rx="2" fill="#3fb950" opacity="0.85"/>
  <rect x="260" y="486" width="16" height="16" rx="2" fill="#3fb950" opacity="0.85"/>
  <rect x="279" y="486" width="16" height="16" rx="2" fill="#3fb950" opacity="0.85"/>
  <rect x="298" y="486" width="16" height="16" rx="2" fill="#3fb950" opacity="0.85"/>
  <rect x="317" y="486" width="16" height="16" rx="2" fill="#3fb950" opacity="0.85"/>
  <rect x="336" y="486" width="16" height="16" rx="2" fill="#3fb950" opacity="0.85"/>
  <rect x="355" y="486" width="16" height="16" rx="2" fill="#3fb950" opacity="0.85"/>
  <text x="138" y="517" fill="#e6edf3" font-size="11" font-weight="600" font-family="ui-monospace,monospace" text-anchor="end">Pinecone</text>
  <rect x="146" y="505" width="16" height="16" rx="2" fill="#21262d" opacity="0.85"/>
  <rect x="165" y="505" width="16" height="16" rx="2" fill="#21262d" opacity="0.85"/>
  <rect x="184" y="505" width="16" height="16" rx="2" fill="#21262d" opacity="0.85"/>
  <rect x="203" y="505" width="16" height="16" rx="2" fill="#21262d" opacity="0.85"/>
  <rect x="222" y="505" width="16" height="16" rx="2" fill="#21262d" opacity="0.85"/>
  <rect x="241" y="505" width="16" height="16" rx="2" fill="#3fb950" opacity="0.85"/>
  <rect x="260" y="505" width="16" height="16" rx="2" fill="#3fb950" opacity="0.85"/>
  <rect x="279" y="505" width="16" height="16" rx="2" fill="#3fb950" opacity="0.85"/>
  <rect x="298" y="505" width="16" height="16" rx="2" fill="#3fb950" opacity="0.85"/>
  <rect x="317" y="505" width="16" height="16" rx="2" fill="#3fb950" opacity="0.85"/>
  <rect x="336" y="505" width="16" height="16" rx="2" fill="#3fb950" opacity="0.85"/>
  <rect x="355" y="505" width="16" height="16" rx="2" fill="#3fb950" opacity="0.85"/>
  <text x="138" y="536" fill="#e6edf3" font-size="11" font-weight="600" font-family="ui-monospace,monospace" text-anchor="end">Stability AI</text>
  <rect x="146" y="524" width="16" height="16" rx="2" fill="#21262d" opacity="0.85"/>
  <rect x="165" y="524" width="16" height="16" rx="2" fill="#21262d" opacity="0.85"/>
  <rect x="184" y="524" width="16" height="16" rx="2" fill="#21262d" opacity="0.85"/>
  <rect x="203" y="524" width="16" height="16" rx="2" fill="#21262d" opacity="0.85"/>
  <rect x="222" y="524" width="16" height="16" rx="2" fill="#21262d" opacity="0.85"/>
  <rect x="241" y="524" width="16" height="16" rx="2" fill="#3fb950" opacity="0.85"/>
  <rect x="260" y="524" width="16" height="16" rx="2" fill="#3fb950" opacity="0.85"/>
  <rect x="279" y="524" width="16" height="16" rx="2" fill="#3fb950" opacity="0.85"/>
  <rect x="298" y="524" width="16" height="16" rx="2" fill="#3fb950" opacity="0.85"/>
  <rect x="317" y="524" width="16" height="16" rx="2" fill="#3fb950" opacity="0.85"/>
  <rect x="336" y="524" width="16" height="16" rx="2" fill="#3fb950" opacity="0.85"/>
  <rect x="355" y="524" width="16" height="16" rx="2" fill="#3fb950" opacity="0.85"/>
  <text x="138" y="555" fill="#e6edf3" font-size="11" font-weight="600" font-family="ui-monospace,monospace" text-anchor="end">Deepgram</text>
  <rect x="146" y="543" width="16" height="16" rx="2" fill="#21262d" opacity="0.85"/>
  <rect x="165" y="543" width="16" height="16" rx="2" fill="#21262d" opacity="0.85"/>
  <rect x="184" y="543" width="16" height="16" rx="2" fill="#21262d" opacity="0.85"/>
  <rect x="203" y="543" width="16" height="16" rx="2" fill="#21262d" opacity="0.85"/>
  <rect x="222" y="543" width="16" height="16" rx="2" fill="#21262d" opacity="0.85"/>
  <rect x="241" y="543" width="16" height="16" rx="2" fill="#21262d" opacity="0.85"/>
  <rect x="260" y="543" width="16" height="16" rx="2" fill="#21262d" opacity="0.85"/>
  <rect x="279" y="543" width="16" height="16" rx="2" fill="#21262d" opacity="0.85"/>
  <rect x="298" y="543" width="16" height="16" rx="2" fill="#21262d" opacity="0.85"/>
  <rect x="317" y="543" width="16" height="16" rx="2" fill="#21262d" opacity="0.85"/>
  <rect x="336" y="543" width="16" height="16" rx="2" fill="#3fb950" opacity="0.85"/>
  <rect x="355" y="543" width="16" height="16" rx="2" fill="#3fb950" opacity="0.85"/>
  <text x="138" y="574" fill="#e6edf3" font-size="11" font-weight="600" font-family="ui-monospace,monospace" text-anchor="end">AssemblyAI</text>
  <rect x="146" y="562" width="16" height="16" rx="2" fill="#21262d" opacity="0.85"/>
  <rect x="165" y="562" width="16" height="16" rx="2" fill="#21262d" opacity="0.85"/>
  <rect x="184" y="562" width="16" height="16" rx="2" fill="#21262d" opacity="0.85"/>
  <rect x="203" y="562" width="16" height="16" rx="2" fill="#21262d" opacity="0.85"/>
  <rect x="222" y="562" width="16" height="16" rx="2" fill="#21262d" opacity="0.85"/>
  <rect x="241" y="562" width="16" height="16" rx="2" fill="#21262d" opacity="0.85"/>
  <rect x="260" y="562" width="16" height="16" rx="2" fill="#21262d" opacity="0.85"/>
  <rect x="279" y="562" width="16" height="16" rx="2" fill="#21262d" opacity="0.85"/>
  <rect x="298" y="562" width="16" height="16" rx="2" fill="#21262d" opacity="0.85"/>
  <rect x="317" y="562" width="16" height="16" rx="2" fill="#21262d" opacity="0.85"/>
  <rect x="336" y="562" width="16" height="16" rx="2" fill="#ef4444" opacity="0.85"/>
  <rect x="355" y="562" width="16" height="16" rx="2" fill="#3fb950" opacity="0.85"/>
  <rect x="16" y="613" width="10" height="10" rx="2" fill="#3fb950" opacity="0.85"/>
  <text x="30" y="622" fill="#8b949e" font-size="10" font-family="ui-monospace,monospace">Operational</text>
  <rect x="126" y="613" width="10" height="10" rx="2" fill="#eab308" opacity="0.85"/>
  <text x="140" y="622" fill="#8b949e" font-size="10" font-family="ui-monospace,monospace">Degraded</text>
  <rect x="236" y="613" width="10" height="10" rx="2" fill="#ef4444" opacity="0.85"/>
  <text x="250" y="622" fill="#8b949e" font-size="10" font-family="ui-monospace,monospace">Down</text>
  <rect x="346" y="613" width="10" height="10" rx="2" fill="#21262d" opacity="0.85"/>
  <text x="360" y="622" fill="#8b949e" font-size="10" font-family="ui-monospace,monospace">Not Monitored</text>
  <text x="16" y="637" fill="#8b949e" font-size="8" font-family="ui-monospace,monospace" opacity="0.7">Gray areas indicate periods before a service was added to AIWatch monitoring.</text>
</svg>
